Coordinates
version=1
nRows=27
nColumns=19
inDegrees=yes

Units are S.I. units (second, meters, Newtons, ...)
If the header above contains a line with 'inDegrees', this indicates whether rotational values are in degrees (yes) or radians (no).

endheader
time	pelvis_tilt	pelvis_list	pelvis_rotation	pelvis_tx	pelvis_ty	pelvis_tz	hip_flexion_r	hip_adduction_r	hip_rotation_r	knee_angle_r	knee_angle_r_beta	ankle_angle_r	hip_flexion_l	hip_adduction_l	hip_rotation_l	knee_angle_l	knee_angle_l_beta	ankle_angle_l
     16.78666667	     -2.27560919	      5.73447514	      4.35343262	      2.21487662	      0.96890050	      0.99207166	    -14.36346834	    -10.20793107	    -17.17060835	     53.53836426	      0.93442073	    -11.26214688	     25.56103045	      9.14277955	     -4.82711240	     15.08145472	      0.26322104	      7.30220960
     16.79333333	     -2.16389198	      6.27300269	      4.85655897	      2.21352847	      0.96516855	      0.99131446	    -13.03166124	    -10.65900954	    -16.25060603	     57.60011475	      1.00531165	    -10.29370378	     25.93688946	      9.67331126	     -5.56184810	     17.51679368	      0.30572572	      7.01064244
     16.80000000	     -1.77462843	      6.84799035	      5.42911034	      2.21210925	      0.96141751	      0.99066221	    -11.98598343	    -11.09515423	    -15.54971892	     61.53839111	      1.07404754	     -9.50220517	     26.00182208	     10.19635575	     -6.14044391	     20.25791418	      0.35356730	      6.79330041
     16.80666667	     -1.43165355	      7.32206876	      6.05946760	      2.21057349	      0.95728490	      0.99005943	    -10.80857105	    -11.43666923	    -14.97910629	     65.41332551	      1.14167790	     -8.76036974	     26.14220045	     10.58793769	     -6.54409642	     23.30731280	      0.40678935	      6.73864567
     16.81333333	     -1.00530263	      7.79224778	      6.72722859	      2.20898445	      0.95303499	      0.98947104	     -9.68890997	    -11.77397013	    -14.53336495	     69.12619358	      1.20647968	     -8.20208301	     26.10400673	     10.99737237	     -6.61440882	     26.41202269	      0.46097676	      7.01029035
     16.82000000	     -0.68711216	      8.15370044	      7.38775994	      2.20737513	      0.94854590	      0.98884056	     -8.36029974	    -12.09188895	    -14.16254886	     72.72357584	      1.26926584	     -7.60718248	     26.11789314	     11.31318181	     -6.47993068	     29.56720881	      0.51604514	      7.60059801
     16.82666667	     -0.41236075	      8.50331139	      8.04326203	      2.20570185	      0.94398144	      0.98817964	     -6.93239738	    -12.46822293	    -13.85673028	     76.14635207	      1.32900456	     -6.95933295	     26.05456034	     11.65940443	     -6.14921000	     32.61361088	      0.56921489	      8.53425114
     16.83333333	     -0.25741775	      8.76779123	      8.66815562	      2.20399040	      0.93941621	      0.98745091	     -5.28459391	    -12.86742350	    -13.56381440	     79.38086460	      1.38545745	     -6.27268166	     25.98974127	     11.97421003	     -5.64339057	     35.50510763	      0.61968103	      9.85197280
     16.84000000	     -0.22209129	      8.98500998	      9.23249081	      2.20226449	      0.93497095	      0.98667090	     -3.41963260	    -13.33766160	    -13.24402034	     82.40509941	      1.43824031	     -5.50176064	     25.88883768	     12.28624602	     -5.04909662	     38.15490029	      0.66592864	     11.46593115
     16.84666667	     -0.28635912	      9.15207899	      9.71638108	      2.20059942	      0.93078234	      0.98589839	     -1.35895611	    -13.85471105	    -12.86409184	     85.17487326	      1.48658198	     -4.68100123	     25.70217850	     12.57810286	     -4.40364166	     40.50469903	      0.70694036	     13.31869941
     16.85333333	     -0.40406046	      9.25249481	     10.07028392	      2.19896167	      0.92699763	      0.98519744	      0.87207699	    -14.36893830	    -12.35731671	     87.66845968	      1.53010327	     -3.79774503	     25.37216927	     12.79255907	     -3.77906311	     42.51067279	      0.74195121	     15.34285276
     16.86000000	     -0.64880527	      9.27880933	     10.30621347	      2.19742681	      0.92361475	      0.98457047	      3.34963834	    -14.87348465	    -11.73992659	     89.86258871	      1.56839805	     -2.92506947	     24.97962924	     12.92861200	     -3.20194453	     44.17546845	      0.77100737	     17.40356401
     16.86666667	     -0.27915703	      9.37389547	     10.45548431	      2.19613280	      0.92161743	      0.98404413	      5.06310070	    -15.39853383	    -11.28022544	     91.53767136	      1.59763375	     -2.06861548	     23.58941441	     13.04201908	     -2.53516204	     45.33360800	      0.79122072	     19.54069933
     16.87333333	     -1.10118783	      9.14130289	     10.33028276	      2.19471428	      0.91869790	      0.98380578	      8.52858997	    -15.63759620	    -10.15017604	     93.20451759	      1.62672571	     -1.20089293	     23.49102320	     12.86125271	     -2.23853487	     46.32517824	      0.80852689	     21.35561520
     16.88000000	     -1.33382619	      8.90030346	     10.18925592	      2.19354290	      0.91717216	      0.98366540	     11.20671885	    -15.76233384	     -9.29983453	     94.31000585	      1.64602012	     -0.40320325	     22.46274417	     12.59814999	     -1.78582149	     46.86489949	      0.81794680	     23.08179386
     16.88666667	     -1.40872626	      8.66416913	      9.86899720	      2.19258142	      0.91647969	      0.98374034	     13.71090254	    -15.79310542	     -8.38465441	     95.00639031	      1.65817432	      0.32332950	     21.04225727	     12.24791300	     -1.46577208	     47.00014334	      0.82030725	     24.56125448
     16.89333333	     -1.49380745	      8.31910004	      9.45382467	      2.19178004	      0.91636934	      0.98399058	     16.21314378	    -15.62170379	     -7.49499860	     95.32158660	      1.66367553	      0.97942209	     19.47562660	     11.74482048	     -1.21251868	     46.82462399	      0.81724386	     25.72722481
     16.90000000	     -1.52154161	      7.87984932	      9.33311202	      2.19113601	      0.91698955	      0.98389768	     18.39549039	    -15.43212162	     -7.11935154	     95.17606671	      1.66113573	      1.56579035	     17.67132351	     11.27870242	     -0.53253657	     46.36387366	      0.80920225	     26.50798223
     16.90666667	     -1.55959195	      7.40647669	      8.40829675	      2.19066598	      0.91787729	      0.98486890	     20.86376603	    -14.78803972	     -5.96125114	     94.79724953	      1.65452413	      2.07695503	     15.83024320	     10.41920924	     -0.90242823	     45.66384204	      0.79698439	     27.11151841
     16.91333333	     -1.65234614	      6.86071136	      7.77661701	      2.19043871	      0.91931864	      0.98546967	     23.07976801	    -14.16884180	     -5.31599598	     93.98768045	      1.64039448	      2.52994264	     13.91346833	      9.63315342	     -0.93398860	     44.74600411	      0.78096510	     27.23960719
     16.92000000	     -1.67171970	      6.26391171	      7.09030215	      2.19033267	      0.92131282	      0.98622725	     25.06029844	    -13.40016907	     -4.78730791	     92.80708356	      1.61978918	      2.96274181	     11.83112372	      8.77274780	     -1.05029087	     43.61735403	      0.76126644	     27.01440692
     16.92666667	     -1.68170401	      5.62126948	      6.39954117	      2.19048877	      0.92371449	      0.98699365	     26.82069680	    -12.56449047	     -4.44061432	     91.26657353	      1.59290221	      3.36359036	      9.67277490	      7.86907182	     -1.25746835	     42.33909166	      0.73895655	     26.42823710
     16.93333333	     -1.63031293	      4.94803766	      5.69398015	      2.19089422	      0.92656689	      0.98779332	     28.29495105	    -11.67811970	     -4.26432682	     89.37610855	      1.55990737	      3.75925563	      7.38536257	      6.93485779	     -1.56101036	     40.91415588	      0.71408673	     25.48009724
     16.94000000	     -1.70143325	      4.24531376	      5.05001426	      2.19151475	      0.92959667	      0.98852048	     29.68184698	    -10.80465551	     -4.29190285	     87.16897440	      1.52138561	      4.10642895	      5.21278076	      6.01550686	     -1.88237865	     39.40978034	      0.68783042	     24.15642313
     16.94666667	     -1.39175710	      3.56525546	      4.44242355	      2.19254736	      0.93338623	      0.98918604	     30.35144063	    -10.00213237	     -4.58162416	     84.58594699	      1.47630328	      4.53722028	      2.52024613	      5.10954775	     -2.25050922	     37.67108247	      0.65748442	     22.47996657
     16.95333333	     -1.41955491	      2.82635967	      3.80926610	      2.19375155	      0.93694499	      0.98994008	     31.23077185	     -9.12472847	     -4.93761340	     81.74941849	      1.42679651	      4.86677649	      0.25472639	      4.17928876	     -2.78421932	     35.98229470	      0.62800951	     20.46586963
     16.96000000	     -1.39163503	      2.10435810	      3.24179901	      2.19526213	      0.94077272	      0.99057993	     31.80227614	     -8.34484876	     -5.52845679	     78.62001534	      1.37217813	      5.16617722	     -2.09120245	      3.29718669	     -3.35411736	     34.19758795	      0.59686051	     18.10079369
